<svg xmlns="http://www.w3.org/2000/svg" viewBox="0 0 16 16" fill="none"><g><path data-follow-fill="currentColor" fill-rule="evenodd" clip-rule="evenodd" d="M8 1.571a6.429 6.429 0 1 0 0 12.857A6.429 6.429 0 0 0 8 1.571Zm-1.566 1.08a4.988 4.988 0 0 0-.595 1.053A9.034 9.034 0 0 0 5.29 5.57H2.984a5.586 5.586 0 0 1 3.45-2.92Zm-.41 3.777h3.953c.062.497.095 1.024.095 1.572s-.033 1.075-.095 1.571H6.024A12.826 12.826 0 0 1 5.929 8c0-.548.033-1.075.095-1.572Zm.14-.857h3.673a7.994 7.994 0 0 0-.463-1.53c-.212-.497-.454-.87-.701-1.115-.246-.242-.472-.335-.672-.335-.2 0-.427.093-.672.335-.247.244-.49.618-.702 1.115a7.994 7.994 0 0 0-.463 1.53Zm4.547 0a9.035 9.035 0 0 0-.549-1.867 4.989 4.989 0 0 0-.594-1.052 5.586 5.586 0 0 1 3.448 2.92H10.71Zm.13.857h2.506c.146.499.224 1.026.224 1.572s-.078 1.073-.224 1.571H10.84c.058-.503.088-1.03.088-1.571 0-.542-.03-1.068-.089-1.572Zm-.13 4h2.305a5.586 5.586 0 0 1-3.448 2.92c.226-.298.424-.655.594-1.052a9.03 9.03 0 0 0 .549-1.868Zm-5.55-.857A13.744 13.744 0 0 1 5.072 8c0-.542.03-1.068.089-1.572H2.653A5.574 5.574 0 0 0 2.43 8c0 .546.078 1.073.224 1.571h2.508Zm1.003.857c.118.576.275 1.093.463 1.531.212.496.455.87.702 1.115.245.242.471.335.672.335.2 0 .426-.093.672-.335.247-.244.489-.619.701-1.115a7.98 7.98 0 0 0 .464-1.53H6.164Zm-.874 0H2.984a5.586 5.586 0 0 0 3.45 2.92 4.987 4.987 0 0 1-.595-1.052 9.035 9.035 0 0 1-.549-1.868Z" fill="currentColor"/></g></svg>