<svg xmlns="http://www.w3.org/2000/svg" viewBox="0 0 16 16" fill="none"><g><path data-follow-stroke="currentColor" d="m4.94 14.897-2.58-2.545a1.25 1.25 0 0 1 1.768-1.767l1.613 1.508-1.747-6.52a1.25 1.25 0 1 1 2.415-.647l.906 3.381a1.25 1.25 0 1 1 2.414-.647l.26.966a1.25 1.25 0 1 1 2.414-.647l.582 2.173c.389 1.45.165 2.545.165 2.545" stroke="currentColor" stroke-linecap="round" stroke-linejoin="round"/><path data-follow-stroke="currentColor" d="m2.667 6.333.686-1.372a1.853 1.853 0 0 1 2.06-.98l.071.016A1.769 1.769 0 0 0 7.53 2.874v0a1.769 1.769 0 0 1 2.703-.826L12 3.333" stroke="currentColor" stroke-linecap="round" stroke-linejoin="round"/></g></svg>