<svg preserveAspectRatio="none" overflow="visible" style="display: block;" width="21.5232" height="23.8363" viewBox="0 0 21.5232 23.8363" fill="none" xmlns="http://www.w3.org/2000/svg">
<foreignObject x="-14.8" y="-14.8" width="51.1232" height="53.4363"><div xmlns="http://www.w3.org/1999/xhtml" style="backdrop-filter:blur(7.4px);clip-path:url(#bgblur_0_0_161_clip_path);height:100%;width:100%"></div></foreignObject><g id="Vector" data-figma-bg-blur-radius="14.8">
<path d="M8.89543 22.3599L0.891557 2.40311C0.512676 1.45027 1.38095 0.47978 2.23343 0.903265L20.1198 9.8141C20.9723 10.2376 20.9091 11.6139 20.0093 11.9315L13.5052 14.2431C13.1894 14.3489 12.9526 14.6312 12.8421 14.9842L10.7741 22.254C10.5057 23.2421 9.27431 23.3127 8.89543 22.3599Z" fill="#13110D" fill-opacity="0.75"/>
<path d="M0.80215 0.870485C1.17874 0.449556 1.79908 0.241045 2.41152 0.54529L20.2973 9.45545H20.2982C20.896 9.75249 21.1492 10.3721 21.1215 10.932C21.0936 11.493 20.7778 12.0845 20.142 12.309L20.141 12.308L13.6391 14.6195L13.6322 14.6224C13.4672 14.6778 13.3064 14.8409 13.224 15.1039L11.1596 22.3578L11.1605 22.3588C10.9824 23.0148 10.4637 23.4019 9.89883 23.434C9.33397 23.466 8.77535 23.1402 8.52383 22.5082L0.519923 2.55213V2.55115C0.271779 1.9271 0.429947 1.28673 0.80215 0.870485Z" stroke="#FFDE70" stroke-opacity="0.8" stroke-width="0.8"/>
</g>
<defs>
<clipPath id="bgblur_0_0_161_clip_path" transform="translate(14.8 14.8)"><path d="M8.89543 22.3599L0.891557 2.40311C0.512676 1.45027 1.38095 0.47978 2.23343 0.903265L20.1198 9.8141C20.9723 10.2376 20.9091 11.6139 20.0093 11.9315L13.5052 14.2431C13.1894 14.3489 12.9526 14.6312 12.8421 14.9842L10.7741 22.254C10.5057 23.2421 9.27431 23.3127 8.89543 22.3599Z"/>
</clipPath></defs>
</svg>
