<svg preserveAspectRatio="none" overflow="visible" style="display: block;" width="16" height="16" viewBox="0 0 16 16" fill="none" xmlns="http://www.w3.org/2000/svg">
<g id="house_simple">
<path id="Rectangle" d="M10.4996 13.5L5.49956 13.5H2.99956C2.72342 13.5 2.49956 13.2761 2.49956 13V7.7071C2.49956 7.57449 2.55224 7.44731 2.64601 7.35354L7.64602 2.35353C7.84128 2.15827 8.15785 2.15827 8.35312 2.35351L13.3535 7.35354C13.4473 7.44731 13.5 7.57449 13.5 7.70711V13C13.5 13.2761 13.2761 13.5 13 13.5L10.4996 13.5ZM5.49956 13.5V12.1602C5.49956 12.056 5.53213 11.9544 5.5927 11.8696L7.5927 9.0696C7.79211 8.79043 8.20702 8.79043 8.40643 9.0696L10.4064 11.8696C10.467 11.9544 10.4996 12.056 10.4996 12.1602V13.5" stroke="white" stroke-linecap="round" stroke-linejoin="round"/>
</g>
</svg>
