<svg preserveAspectRatio="none" overflow="visible" style="display: block;" width="16" height="16" viewBox="0 0 16 16" fill="none" xmlns="http://www.w3.org/2000/svg">
<g id="share">
<path id="Vector" d="M3.5 10C4.60457 10 5.5 9.10457 5.5 8C5.5 6.89543 4.60457 6 3.5 6C2.39543 6 1.5 6.89543 1.5 8C1.5 9.10457 2.39543 10 3.5 10Z" stroke="white" stroke-linecap="round" stroke-linejoin="round"/>
<path id="Vector_2" d="M12.5 14.5C13.6046 14.5 14.5 13.6046 14.5 12.5C14.5 11.3954 13.6046 10.5 12.5 10.5C11.3954 10.5 10.5 11.3954 10.5 12.5C10.5 13.6046 11.3954 14.5 12.5 14.5Z" stroke="white" stroke-linecap="round" stroke-linejoin="round"/>
<path id="Vector_3" d="M12.5 5.5C13.6046 5.5 14.5 4.60457 14.5 3.5C14.5 2.39543 13.6046 1.5 12.5 1.5C11.3954 1.5 10.5 2.39543 10.5 3.5C10.5 4.60457 11.3954 5.5 12.5 5.5Z" stroke="white" stroke-linecap="round" stroke-linejoin="round"/>
<path id="Vector_4" d="M10.4996 4.5L5.4996 6.5" stroke="white" stroke-linecap="square" stroke-linejoin="round"/>
<path id="Vector_5" d="M5.4996 9.5L10.4996 11.5" stroke="white" stroke-linecap="square" stroke-linejoin="round"/>
</g>
</svg>
